PathFileType	4	(X/Y/Z)	2014001\dynamic\2014001_C3_02.trc
DataRate	CameraRate	NumFrames	NumMarkers	Units	OrigDataRate	OrigDataStartFrame	OrigNumFrames
100.000000	100.000000	4	52	mm	100.000000	163	187
Frame#	Time	L_IAS			L_IPS			R_IPS			R_IAS			L_FTC			L_FLE			L_FME			L_FAX			L_TTC			L_FAL			L_TAM			L_FCC			L_FM1			L_FM2			L_FM5			R_FTC			R_FLE			R_FME			R_FAX			R_TTC			R_FAL			R_TAM			R_FCC			R_FM1			R_FM2			R_FM5			CV7			TV10			SXS			SJN			L_SIA			L_SRS			L_SAA			L_SAE			L_HLE			L_HME			L_UOA			L_RSP			L_UHE			L_HM2			L_HM5			R_SIA			R_SRS			R_SAA			R_SAE			R_HLE			R_HME			R_UOA			R_RSP			R_UHE			R_HM2			R_HM5			
		X1	Y1	Z1	X2	Y2	Z2	X3	Y3	Z3	X4	Y4	Z4	X5	Y5	Z5	X6	Y6	Z6	X7	Y7	Z7	X8	Y8	Z8	X9	Y9	Z9	X10	Y10	Z10	X11	Y11	Z11	X12	Y12	Z12	X13	Y13	Z13	X14	Y14	Z14	X15	Y15	Z15	X16	Y16	Z16	X17	Y17	Z17	X18	Y18	Z18	X19	Y19	Z19	X20	Y20	Z20	X21	Y21	Z21	X22	Y22	Z22	X23	Y23	Z23	X24	Y24	Z24	X25	Y25	Z25	X26	Y26	Z26	X27	Y27	Z27	X28	Y28	Z28	X29	Y29	Z29	X30	Y30	Z30	X31	Y31	Z31	X32	Y32	Z32	X33	Y33	Z33	X34	Y34	Z34	X35	Y35	Z35	X36	Y36	Z36	X37	Y37	Z37	X38	Y38	Z38	X39	Y39	Z39	X40	Y40	Z40	X41	Y41	Z41	X42	Y42	Z42	X43	Y43	Z43	X44	Y44	Z44	X45	Y45	Z45	X46	Y46	Z46	X47	Y47	Z47	X48	Y48	Z48	X49	Y49	Z49	X50	Y50	Z50	X51	Y51	Z51	X52	Y52	Z52	

164	1.63	116.2694168090821	879.6767578125005	-556.5916748046877	195.1965179443361	914.3745117187505	-381.9004516601564	283.8322143554689	911.305053710938	-381.0927734375001	356.3836975097657	878.020385742188	-560.173522949219	57.959098815918	794.3408203125005	-488.8536071777346	59.79592514038089	457.7948303222659	-603.5125122070315	171.1427307128907	442.7107849121096	-645.757507324219	58.20614242553714	402.1537170410159	-578.9287719726565	90.80744934082034	370.5318603515626	-645.6551513671877	88.62358093261722	88.09944152832034	-508.7493896484377	174.4432830810547	89.69895935058597	-549.663269042969	147.7466735839844	50.13037872314456	-469.0606079101565	130.7789306640626	33.07296752929689	-647.5167236328127	73.87886047363284	44.20970153808595	-639.6582031250002	45.90070724487306	33.56443786621095	-585.3618774414065	410.4860839843752	782.664672851563	-462.8901062011721	357.3313598632814	432.5027465820315	-449.5534973144534	239.5149993896486	427.4265441894534	-458.371520996094	358.6822509765626	367.9182434082032	-423.9635925292971	305.2277832031251	357.4397277832032	-482.1186523437502	299.163299560547	67.38210296630862	-337.1403198242189	214.5024871826173	83.49639129638675	-374.4902343750001	242.5147552490236	33.43176269531251	-290.7965393066407	221.8234405517579	19.63766670227051	-475.6229248046877	285.4032592773439	29.1775417327881	-485.1000976562502	333.4371948242189	17.56812286376954	-425.1848449707034	253.8151092529298	1380.471313476563	-424.8082275390627	249.2835083007814	1147.716918945313	-359.0609741210939	223.518035888672	1154.716552734375	-591.053405761719	232.8730926513673	1318.19287109375	-549.6500244140627	167.049301147461	1190.081909179688	-342.5110168457032	176.0697479248047	1323.536499023438	-364.3240661621095	60.54799270629886	1323.058959960938	-416.8042907714846	64.72307586669925	1332.984008789063	-460.1803894042971	-6.497217655181888	1060.123413085938	-371.3657531738282	73.55825805664065	1028.036499023438	-363.0554809570314	28.04200553894044	1030.971557617188	-343.9481811523439	2.599973440170289	815.9539184570317	-429.6987915039065	-51.00050354003909	825.4412231445317	-368.5195922851564	-11.61849308013916	729.1771240234377	-440.643493652344	-50.92276382446292	748.1104736328127	-347.420623779297	372.1741333007814	1189.288330078125	-372.6708984375001	344.5087280273439	1311.106323242188	-392.3209533691409	437.0603332519534	1311.9091796875	-483.1858825683596	415.5266113281252	1317.03515625	-529.4393310546877	509.0874023437502	1024.027587890625	-563.2781372070315	438.0802001953127	993.1777954101567	-533.0386962890627	483.6838378906252	986.084350585938	-540.9248046875002	456.7733459472659	883.037719726563	-742.2653808593752	524.0861816406252	854.9306640625005	-704.9553833007815	467.462829589844	823.8102416992192	-814.4199218750005	522.8696289062502	783.1420288085942	-738.503356933594	
165	1.64	116.2149505615235	878.2474975585942	-566.2933349609377	194.2384796142579	913.0043945312505	-391.4083251953127	282.8899230957032	910.0607299804692	-390.2661437988284	356.4367675781251	876.8171386718755	-568.9456176757815	57.69154739379886	792.8113403320317	-498.5908508300784	60.94837188720706	456.065368652344	-614.506286621094	172.1369171142579	442.6472473144534	-657.7503051757815	59.31467437744143	398.9626464843752	-592.883972167969	91.98450469970706	371.4777221679689	-661.116394042969	89.27582550048831	81.85005950927737	-543.0650634765627	174.489486694336	85.59517669677737	-583.9680175781252	148.0058135986329	41.17058181762697	-506.1917724609377	129.8135681152344	35.44434356689455	-685.136413574219	72.99644470214847	46.41195678710939	-676.3391723632815	45.33485412597658	32.53932952880861	-622.7753906250002	410.1697387695315	781.9880981445317	-470.9758911132815	357.2200927734376	432.1614074707034	-453.6058349609377	239.5113830566407	426.8147583007815	-462.7719726562502	358.4902343750001	367.7664794921876	-427.2604980468752	305.2327270507814	356.600067138672	-485.3102111816409	299.0856323242189	67.91762542724612	-337.565399169922	214.3606109619142	83.77014160156253	-375.0030822753907	242.3181152343751	34.3201026916504	-290.8483276367189	221.9208068847657	19.56279945373536	-475.6610107421877	285.4425659179689	29.06472396850587	-485.1982421875002	333.4079589843751	17.51292037963868	-425.1596374511721	253.4927673339845	1379.4169921875	-434.7409973144534	248.9101867675782	1146.748413085938	-368.628387451172	223.2416229248048	1153.116821289063	-600.6705322265627	232.2553100585939	1316.735229492188	-559.6673583984377	167.0830535888672	1189.001586914063	-352.0113830566407	175.9576110839844	1322.494018554688	-374.0486755371095	60.31398773193362	1321.524780273438	-426.3688964843752	64.29309844970706	1331.358520507813	-469.7598571777346	-5.625526905059816	1058.844116210938	-379.1559448242189	74.21186065673831	1026.70703125	-371.815155029297	28.94651794433595	1029.651977539063	-352.0953674316407	2.321005582809449	814.7051391601567	-437.7818603515627	-50.44348526000979	824.086059570313	-375.8181762695314	-12.46755981445313	728.1015625000002	-449.0450744628909	-49.9865531921387	746.676940917969	-354.8361206054689	372.1362609863282	1188.520263671875	-382.8760375976564	344.217254638672	1310.116455078125	-402.581726074219	436.6076660156252	1311.098388671875	-493.6547546386721	414.7355041503909	1316.147583007813	-539.8677978515627	509.2353820800784	1023.803771972657	-575.8077392578127	438.2683410644534	992.5123901367192	-546.0197753906252	484.0513610839846	985.4692993164067	-553.8587646484377	456.0164794921877	886.5698242187505	-757.5893554687502	523.204040527344	857.2590942382817	-720.835388183594	466.3996887207034	828.879028320313	-830.9116210937505	521.540466308594	786.1990356445317	-755.9178466796877	
166	1.65	116.0543975830079	876.6497192382817	-576.035583496094	193.2778778076173	911.501586914063	-400.9980163574221	281.9148254394532	908.7245483398442	-399.607604980469	356.3773803710939	875.5728149414067	-577.9116210937502	57.39914321899417	791.110961914063	-508.3416137695315	62.12970733642581	454.151306152344	-625.2651367187502	173.2543029785157	442.2688293457034	-669.192565917969	60.42810440063479	395.788513183594	-606.6719360351565	93.24243164062503	372.3787231445314	-676.1281738281252	90.08657836914065	76.65665435791018	-577.4512329101565	174.5400543212891	82.69848632812503	-618.1011962890627	148.2444305419922	33.59152221679689	-543.4779052734377	129.2358398437501	39.12763595581056	-722.2082519531252	72.46678161621097	49.73918151855472	-712.6477661132815	45.00379562377931	32.64973449707033	-660.1109008789065	409.8918151855471	781.3440551757817	-479.2369689941409	357.183074951172	431.8894958496096	-457.6481628417971	239.5722503662111	426.2178955078127	-467.2666015625002	358.3527832031251	367.7056884765626	-430.5291137695315	305.3522033691407	355.8114318847657	-488.4876708984377	299.0705566406251	68.51130676269534	-338.0075683593751	214.2973785400392	84.13002014160159	-375.5191955566407	242.1920166015626	35.34104919433595	-290.8990783691407	222.0095214843751	19.50769996643067	-475.6600341796877	285.4915466308595	28.94196891784669	-485.278991699219	333.3896789550782	17.44451141357423	-425.1359558105471	253.0651702880861	1378.23193359375	-444.7422180175784	248.4586181640626	1145.6650390625	-378.2618713378907	222.8853912353517	1151.433227539063	-610.3593750000002	231.5875549316407	1315.18212890625	-569.7264404296877	166.9795074462891	1187.82861328125	-361.5941772460939	175.7108154296876	1321.341064453125	-383.875213623047	59.96752929687503	1319.909790039063	-436.062683105469	63.79458618164065	1329.65478515625	-479.4649047851565	-4.883172035217287	1057.43115234375	-387.3218994140627	74.72478485107425	1025.248901367188	-380.8724975585939	29.70204353332521	1028.198974609375	-360.5913391113282	2.023255586624146	813.3123168945317	-446.1553955078127	-50.01451110839847	822.615844726563	-383.5449829101564	-13.19026851654053	726.8543090820315	-457.6629028320315	-49.21184158325198	745.1629638671877	-362.6186523437501	371.9742736816407	1187.61669921875	-393.087097167969	343.8252868652345	1309.003051757813	-412.8509826660159	436.0905456542971	1310.146118164063	-504.121032714844	413.8992004394534	1315.128662109375	-550.3029785156252	509.2371520996096	1023.405395507813	-588.1658325195315	438.2906799316409	991.7199096679692	-558.8067016601565	484.2481994628909	984.723999023438	-566.5837402343752	455.1475830078127	889.717163085938	-772.4675292968755	522.196228027344	859.285034179688	-736.259216308594	465.2468872070315	833.484741210938	-846.8580932617192	520.0881347656252	788.9255371093755	-772.745239257813	
167	1.66	115.7949676513672	874.9060058593755	-585.833190917969	192.3322143554689	909.873901367188	-410.6747131347659	280.9142150878907	907.3101196289067	-409.1239318847659	356.2081298828126	874.294311523438	-587.0799560546877	57.07801055908206	789.2607421875005	-518.1387329101565	63.33245086669925	452.1002502441409	-635.8699340820315	174.4948272705079	441.6106262207034	-680.1362915039065	61.55155944824222	392.696472167969	-620.3139648437502	94.56892395019534	373.2519836425782	-690.7266845703127	91.00230407714847	72.55727386474612	-611.660827636719	174.6184082031251	81.01335144042972	-651.7946777343752	148.4717712402344	27.44441986083986	-580.6082763671877	129.1109313964844	44.0678176879883	-758.4681396484377	72.35537719726565	54.13954544067386	-748.3494873046877	44.96059799194337	33.8700523376465	-697.1255493164065	409.6625061035159	780.735717773438	-487.672302246094	357.2235717773439	431.6922302246096	-461.6988220214846	239.6949768066407	425.6318054199221	-471.867370605469	358.2773437500001	367.7427673339845	-433.7905883789065	305.5918273925782	355.0807189941407	-491.6727294921877	299.1203002929689	69.17773437500003	-338.4745178222657	214.3167266845704	84.58552551269534	-376.0575256347657	242.1371307373048	36.50257873535158	-290.9718627929689	222.092010498047	19.48275947570801	-475.623474121094	285.5520629882814	28.81282043457033	-485.3430175781252	333.3840942382814	17.36875343322755	-425.1143188476565	252.5298156738282	1376.922607421875	-454.8204650878909	247.9378509521486	1144.476318359375	-387.9688110351565	222.4437103271486	1149.682495117188	-620.1295166015627	230.8659820556642	1313.54833984375	-579.8325195312502	166.7393951416016	1186.558227539063	-371.270233154297	175.3306121826172	1320.07763671875	-393.8076477050784	59.51110458374026	1318.222534179688	-445.8739318847659	63.22433853149417	1327.884887695313	-489.2848815917971	-4.313443183898928	1055.8896484375	-395.8673095703127	75.0756530761719	1023.670593261719	-390.2156372070315	30.28265762329103	1026.621337890625	-369.4320068359376	1.697447061538697	811.7825317382817	-454.8263244628909	-49.73272705078128	821.0358886718755	-391.7036437988284	-13.78556442260743	725.4412841796877	-466.5054016113284	-48.62053680419925	743.5701904296877	-370.779266357422	371.6860351562501	1186.58203125	-403.3081054687502	343.3330688476564	1307.776245117188	-423.1339111328127	435.5069885253909	1309.056518554688	-514.5898437500002	413.0274353027346	1313.986938476563	-560.742614746094	509.094909667969	1022.832824707032	-600.3574829101565	438.1578369140627	990.7962036132817	-571.3895263671877	484.2707824707034	983.8405151367192	-579.1149902343752	454.160827636719	892.448364257813	-786.8972778320317	521.067077636719	860.9856567382817	-751.2302246093752	463.998718261719	837.5932006835942	-862.265258789063	518.5278930664065	791.293823242188	-788.9902343750005	
